<?xml version="1.0" encoding="UTF-8" standalone="no"?>
<svg
   xmlns:dc="http://purl.org/dc/elements/1.1/"
   xmlns:cc="http://creativecommons.org/ns#"
   xmlns:rdf="http://www.w3.org/1999/02/22-rdf-syntax-ns#"
   xmlns:svg="http://www.w3.org/2000/svg"
   xmlns="http://www.w3.org/2000/svg"
   xmlns:xlink="http://www.w3.org/1999/xlink"
   xmlns:sodipodi="http://sodipodi.sourceforge.net/DTD/sodipodi-0.dtd"
   xmlns:inkscape="http://www.inkscape.org/namespaces/inkscape"
   inkscape:export-ydpi="164.25301"
   inkscape:export-xdpi="164.25301"
   inkscape:export-filename="C:\Users\Mirek\Desktop\projects\wormhole\gfx\logo.png"
   sodipodi:docname="logo.svg"
   inkscape:version="1.0 (4035a4fb49, 2020-05-01)"
   id="svg8"
   version="1.1"
   viewBox="0 0 191.66699 52.67688"
   height="52.67688mm"
   width="191.66699mm">
  <defs
     id="defs2">
    <linearGradient
       id="linearGradient910"
       inkscape:collect="always">
      <stop
         id="stop906"
         offset="0"
         style="stop-color:#0085b8;stop-opacity:0.41365463" />
      <stop
         style="stop-color:#333333;stop-opacity:1"
         offset="0.42484593"
         id="stop914" />
      <stop
         id="stop908"
         offset="1"
         style="stop-color:#333333;stop-opacity:1" />
    </linearGradient>
    <linearGradient
       id="linearGradient859"
       inkscape:collect="always">
      <stop
         id="stop855"
         offset="0"
         style="stop-color:#000000;stop-opacity:1" />
      <stop
         id="stop857"
         offset="1"
         style="stop-color:#0085b8;stop-opacity:1" />
    </linearGradient>
    <radialGradient
       r="6.0854163"
       fy="28.425451"
       fx="74.230019"
       cy="28.425451"
       cx="74.230019"
       gradientTransform="matrix(-1.1413057,4.626986e-7,0,3.0279512,138.06104,-57.713252)"
       gradientUnits="userSpaceOnUse"
       id="radialGradient847"
       xlink:href="#linearGradient859"
       inkscape:collect="always" />
    <radialGradient
       gradientUnits="userSpaceOnUse"
       gradientTransform="matrix(3.7795276,0,0,11.904184,0,-231.68665)"
       r="6.0854163"
       fy="28.608309"
       fx="73.469124"
       cy="28.608309"
       cx="73.469124"
       id="radialGradient863"
       xlink:href="#linearGradient859"
       inkscape:collect="always" />
    <radialGradient
       gradientUnits="userSpaceOnUse"
       gradientTransform="matrix(0.50567671,0,0,1.3484711,-87.314128,-119.22766)"
       r="11.772591"
       fy="110"
       fx="277.5"
       cy="110"
       cx="277.5"
       id="radialGradient876"
       xlink:href="#linearGradient859"
       inkscape:collect="always" />
    <radialGradient
       gradientUnits="userSpaceOnUse"
       gradientTransform="matrix(1.9112178,0,0,5.096585,-69.232056,-119.22769)"
       r="3.1148317"
       fy="29.104168"
       fx="53.578125"
       cy="29.104168"
       cx="53.578125"
       id="radialGradient878"
       xlink:href="#linearGradient859"
       inkscape:collect="always" />
    <radialGradient
       r="11.772591"
       fy="110"
       fx="277.5"
       cy="110"
       cx="277.5"
       gradientTransform="matrix(0.50567671,0,0,1.3484711,-87.314128,-119.22766)"
       gradientUnits="userSpaceOnUse"
       id="radialGradient904"
       xlink:href="#linearGradient859"
       inkscape:collect="always" />
    <linearGradient
       gradientTransform="translate(-0.04678829,-0.00391482)"
       gradientUnits="userSpaceOnUse"
       y2="29.717737"
       x2="79.472969"
       y1="29.717737"
       x1="58.889408"
       id="linearGradient912"
       xlink:href="#linearGradient910"
       inkscape:collect="always" />
  </defs>
  <sodipodi:namedview
     borderlayer="true"
     inkscape:showpageshadow="false"
     fit-margin-right="10"
     fit-margin-bottom="10"
     fit-margin-left="10"
     fit-margin-top="10"
     inkscape:snap-global="false"
     inkscape:window-maximized="1"
     inkscape:window-y="-8"
     inkscape:window-x="-8"
     inkscape:window-height="1017"
     inkscape:window-width="1920"
     showguides="false"
     inkscape:snap-smooth-nodes="true"
     inkscape:snap-bbox="true"
     inkscape:object-paths="true"
     showgrid="false"
     inkscape:document-rotation="0"
     inkscape:current-layer="text882"
     inkscape:document-units="mm"
     inkscape:cy="187.77015"
     inkscape:cx="417.55121"
     inkscape:zoom="0.49497475"
     inkscape:pageshadow="2"
     inkscape:pageopacity="0.0"
     borderopacity="1.0"
     bordercolor="#666666"
     pagecolor="#ffffff"
     id="base">
    <inkscape:grid
       originy="-3.7104567"
       originx="-8.713293"
       id="grid833"
       type="xygrid" />
  </sodipodi:namedview>
  <metadata
     id="metadata5">
    <rdf:RDF>
      <cc:Work
         rdf:about="">
        <dc:format>image/svg+xml</dc:format>
        <dc:type
           rdf:resource="http://purl.org/dc/dcmitype/StillImage" />
        <dc:title></dc:title>
      </cc:Work>
    </rdf:RDF>
  </metadata>
  <g
     transform="translate(-8.7132934,-3.7104567)"
     id="layer1"
     inkscape:groupmode="layer"
     inkscape:label="Layer 1">
    <g
       transform="matrix(1.4790238,0,0,1.4790238,-25.735185,-12.996546)"
       id="g902">
      <path
         id="path835"
         style="fill:#0085b8;fill-opacity:1;stroke:#000000;stroke-width:0.264999;stroke-linecap:butt;stroke-linejoin:miter;stroke-miterlimit:4;stroke-dasharray:none;stroke-opacity:1"
         d="m 31.183035,21.166666 c -1.322917,3.968751 -1.322917,11.90625 0,15.875 1.322917,3.96875 2.645833,3.96875 3.96875,0 0.608206,-1.783606 6.614583,-8.466666 7.9375,-8.466666 1.322917,0 7.201183,6.350097 7.9375,8.466666 1.322916,3.96875 2.645833,3.96875 3.96875,0 1.322916,-3.96875 1.322916,-11.906249 0,-15.875 -1.322917,-3.968749 -2.645834,-3.96875 -3.96875,0 -0.867032,3.195779 -2.645833,6.614584 -3.96875,6.614584 -1.322917,0 -2.645833,-1.322917 -3.96875,-1.322917 -1.322917,0 -2.645833,1.322917 -3.96875,1.322917 -1.322917,0 -3.236748,-4.412334 -3.96875,-6.614584 -1.319538,-3.969874 -2.645833,-3.96875 -3.96875,0 z"
         sodipodi:nodetypes="sscscsscsssss" />
      <path
         sodipodi:nodetypes="csscc"
         d="m 51.026785,37.041666 c 1.322916,3.96875 2.645833,3.96875 3.96875,0 1.322916,-3.96875 1.322916,-11.906249 0,-15.875 -1.322917,-3.968749 -2.645834,-3.96875 -3.96875,0 -1.322917,3.968751 -1.322917,11.90625 0,15.875 z"
         style="fill:url(#radialGradient904);fill-opacity:1;stroke:none;stroke-width:0.264999;stroke-linecap:butt;stroke-linejoin:miter;stroke-miterlimit:4;stroke-dasharray:none;stroke-opacity:1"
         id="path866" />
      <path
         id="path868"
         style="fill:url(#radialGradient878);fill-opacity:1;stroke:none;stroke-width:0.264999;stroke-linecap:butt;stroke-linejoin:miter;stroke-miterlimit:4;stroke-dasharray:none;stroke-opacity:1"
         d="m 31.183036,37.041666 c 1.322917,3.96875 2.645833,3.96875 3.96875,0 1.322917,-3.968749 1.322917,-11.906249 0,-15.874999 -1.322917,-3.968749 -2.645833,-3.96875 -3.96875,0 -1.322917,3.96875 -1.322917,11.90625 0,15.874999 z"
         sodipodi:nodetypes="csscc" />
    </g>
    <g
       transform="translate(-5.7828438,0.61531415)"
       style="font-style:normal;font-variant:normal;font-weight:normal;font-stretch:normal;font-size:25.5951px;line-height:1.25;font-family:RustipsRuosteInverted;-inkscape-font-specification:RustipsRuosteInverted;letter-spacing:0px;word-spacing:0px;stroke-width:0.959815"
       id="text882"
       aria-label="ORMHOLE">
      <path
         sodipodi:nodetypes="cccscccccsccccccccccccccccccsccccccccccccccccccccscccccscccssccccssccsccccsccccccscccccccccccccccccccccscccccccccccccccccc"
         id="path884"
         style="font-style:normal;font-variant:normal;font-weight:normal;font-stretch:normal;font-family:RustipsRuosteInverted;-inkscape-font-specification:RustipsRuosteInverted;fill:url(#linearGradient912);fill-opacity:1;stroke-width:0.959815"
         d="m 67.840899,21.455188 h 0.862335 l 4.436651,-0.295979 c 4.190865,2.357882 6.286297,5.211502 6.286297,8.560861 0,2.666157 -1.120619,4.940721 -3.361857,6.823694 -0.749857,1.00814 -1.649684,1.51221 -2.699483,1.51221 -1.508045,0.649876 -2.482858,0.974814 -2.92444,0.974814 -3.324364,-0.249952 -4.986546,-2.124897 -4.986546,-2.449835 -1.133116,0 -3.782811,-2.178952 -5.832419,-4.42019 -1.224765,-1.749665 -2.366315,-1.186868 -2.366315,-2.544941 v -0.537397 c 0.19163,-1.524709 1.045735,-0.59948 1.50398,-1.457649 0.183299,-0.76652 2.50389,-2.632931 4.845108,-4.540899 0,-0.624881 0.291611,-1.058131 0.874833,-1.299751 l 0.749856,0.537397 2.387043,-0.649876 z m -1.849646,2.162086 h -0.09998 l -0.112478,0.112478 v 0.112479 l 0.112478,0.09998 h 0.09998 l 0.112479,-0.09998 v -0.112479 z m 1.737168,2.599502 c -0.816511,0.874833 -1.428894,0.720493 -1.837149,1.653648 -0.724861,0 -2.344983,0.240188 -2.145624,0.324938 v 0.224957 l 0.537397,0.537397 0.945854,1.187273 c 0,1.058131 0.833174,0.845367 2.499522,2.53671 0.03333,0.449914 0.179132,0.808179 0.437416,1.074795 h 0.09998 l 1.849646,0.512705 c 1.041467,-0.291611 1.978788,-1.34141 2.811962,-3.149397 l 0.324937,-2.374545 v -0.112479 c -0.508235,-0.458245 -0.762353,-0.783183 -0.762353,-0.974813 l -1.299751,-2.062105 -0.649876,0.112478 -1.187272,0.620917 -1.187273,0.112478 z m 7.586048,-0.620916 -0.224957,0.762354 c 0.07498,0.283279 0.258283,0.424918 0.549894,0.424918 0.216625,-0.258283 0.324938,-0.508235 0.324938,-0.749856 -0.108313,-0.291611 -0.216625,-0.437416 -0.324938,-0.437416 z m 1.299751,0.762354 c 0,0.266615 0.324938,0.445748 0.974813,0.537397 0,0.483241 0.179132,0.808178 0.537397,0.974813 h 0.112479 v -0.324938 c 0,-0.24162 -0.291611,-0.820676 -0.874833,-1.737167 h -0.324938 c -0.141639,0.03333 -0.283279,0.216625 -0.424918,0.549895 z m -13.418467,0.212459 c 0,-0.285233 -0.424919,0.141639 -0.424919,0.324938 v 0.212459 l 0.324938,0.337436 c 0.358265,0 0.57489,-0.112479 0.649876,-0.337436 v -0.09998 c -0.03333,-0.149971 -0.549895,-0.0753 -0.549895,-0.437416 z m 8.106984,1.19977 h 0.212459 c 0.291611,0.116645 0.437416,0.366597 0.437416,0.749857 v 0.112478 H 71.627674 L 71.302737,28.30784 Z m -9.181778,0 c -0.108313,0 -0.216625,0.14164 -0.324938,0.424919 l 0.424918,0.437416 h 0.112479 l 0.324938,-0.324938 v -0.212459 l -0.324938,-0.324938 z m 12.431156,0.649876 -0.21246,0.212459 v 0.21246 l 0.21246,0.224957 h 0.112478 l 0.324938,-0.324938 -0.324938,-0.324938 z m -13.222469,2.274565 -0.21246,0.212459 v 0.212459 l 0.21246,0.224957 h 0.112478 l 0.324938,-0.324938 -0.324938,-0.324937 z m 12.685071,3.674296 -0.324937,0.224957 c 0,0.224957 0.249952,0.549895 0.749856,0.974814 h 0.112479 l 0.112478,-0.112479 C 74.497958,34.731611 74.31466,34.36918 74.114698,34.36918 Z m -2.71198,0.974814 -0.437417,0.437416 v 0.212459 c 0.458246,0.09165 0.891496,0.274948 1.299751,0.549895 l 0.224957,-0.224957 v -0.212459 l -0.974813,-0.762354 z m 2.062105,0.549894 -0.324938,0.324938 v 0.09998 l 0.324938,0.324938 h 0.212459 l 0.212459,-0.21246 v -0.324937 l -0.212459,-0.21246 z" />
      <path
         id="path886"
         style="font-style:normal;font-variant:normal;font-weight:normal;font-stretch:normal;font-family:RustipsRuosteInverted;-inkscape-font-specification:RustipsRuosteInverted;fill:#333333;stroke-width:0.959815"
         d="m 83.472203,20.500751 h 7.611043 q 1.937129,0.224957 3.636804,1.137282 2.262067,1.924632 2.262067,3.299368 0.349933,0.399924 0.349933,1.124785 v 1.249761 q -0.324938,1.799655 -2.274565,3.986737 v 0.224957 q 0,0.437416 3.299369,7.386086 v 0.324938 l -0.349933,0.237454 -2.949436,-0.237454 -0.912325,0.237454 h -1.474718 q -1.099789,0 -2.612,-4.311675 -0.699866,-1.137282 -0.912325,-1.137282 l -0.112478,0.112479 -0.112479,0.449914 v 3.749282 q 0,0.612383 -0.449914,0.787349 h -5.111521 q -0.799847,0 -0.799847,-1.124785 l -0.112479,-0.687368 0.224957,-0.674871 -0.112478,-10.910411 v -4.311675 q 0,-0.912325 0.912325,-0.912325 z m 6.136326,1.587196 -0.237455,0.224957 v 0.124976 l 0.237455,0.224957 h 0.112478 l 0.224957,-0.224957 v -0.124976 l -0.224957,-0.224957 z m 2.262067,0.687368 q -0.337436,0 -0.337436,0.912326 -1.249761,0.399923 -1.249761,0.787349 v 0.112478 l -2.03711,-0.224957 q -0.199961,0 -0.462411,1.474718 l 0.112478,3.074412 q 0,0.862335 1.137283,1.012306 h 0.224957 l 1.362239,-0.562392 q 0.93732,-1.024804 1.599694,-1.249761 -0.312441,-2.074603 -1.36224,-3.061914 v -0.349933 l 0.112479,-0.112479 q 1.012306,0 1.249761,-0.337435 l -0.112479,-0.337435 0.112479,-0.912326 z m -6.361283,1.812153 h -0.112478 l -0.112479,0.112479 0.224957,0.237454 h 0.124976 l 0.112479,-0.124976 z m 8.298412,0.687369 q -0.612383,0 -0.799847,0.449914 v 0.112478 l 0.462411,0.462412 q 0.612383,0 0.78735,-0.462412 v -0.337435 l -0.224957,-0.224957 z m -8.523369,1.024804 -0.224957,0.224957 v 0.224957 l 0.224957,0.224956 0.349933,-0.337435 v -0.112478 l -0.237454,-0.224957 z m 5.911369,3.28687 -0.57489,0.57489 v 0.112479 l 0.124976,0.112478 q 0.599885,0 0.787349,-0.462411 z" />
      <path
         id="path888"
         style="font-style:normal;font-variant:normal;font-weight:normal;font-stretch:normal;font-family:RustipsRuosteInverted;-inkscape-font-specification:RustipsRuosteInverted;fill:#333333;stroke-width:0.959815"
         d="m 113.96637,20.350779 0.58738,0.112479 2.81197,-0.112479 q 1.0123,0 1.28725,3.624307 2.0996,13.547406 2.0996,14.622201 0,0.474909 -5.03654,0.699866 -1.27475,0 -1.27475,-2.574508 l -0.58739,-3.624306 h -0.23746 q -0.4999,0.374928 -2.68698,4.91156 l -0.69987,0.824842 h -0.47491 q -0.88733,-0.424919 -2.0996,-3.749282 l -1.17477,-1.749665 h -0.11248 q -0.47491,0 -0.47491,3.161894 -0.31244,0.612383 -0.46241,1.98712 -0.43742,0.612383 -3.62431,0.699866 l -0.71236,-0.237454 -1.0498,0.124976 q -0.699864,-0.249953 -0.699864,-0.937321 v -0.699866 l 1.049794,-6.323789 -0.11247,-1.049799 0.11247,-0.349933 q -0.699861,-0.899828 -0.699861,-1.287254 0,-0.712364 1.287251,-2.462029 l 0.93732,-5.149014 q 0.44992,-0.349933 1.0498,-0.349933 h 2.68699 q 1.58719,0 3.28687,4.33667 0.87483,1.637186 1.0498,1.637186 0.5249,0 2.79946,-5.036536 0.63738,-0.787349 1.17478,-1.049799 z m 0.11247,4.799082 -0.34993,0.349933 v 0.112478 l 0.34993,0.349933 0.36244,-0.349933 v -0.112478 z m -9.47318,0.462411 -0.22496,0.237455 v 0.349933 q 0,0.174966 0.46241,0.349933 l 0.46241,-0.462412 -0.46241,-0.474909 z m 2.46203,4.449149 -0.34994,0.349933 v 0.237454 l 0.22496,0.224957 h 0.23746 l 0.34993,-0.349933 z m 1.28725,0 -0.23745,0.237454 0.23745,0.224957 0.22496,-0.224957 z m 1.16228,0.112478 q -0.22496,0 -0.34993,0.824842 v 0.112479 l 0.12497,0.124976 q 0.42492,-0.224957 0.57489,-0.712364 0,-0.349933 -0.22496,-0.349933 z" />
      <path
         sodipodi:nodetypes="csccccccsccccccccccsssssssccccscsccccccccsccccccccccccssccccccc"
         id="path890"
         style="font-style:normal;font-variant:normal;font-weight:normal;font-stretch:normal;font-family:RustipsRuosteInverted;-inkscape-font-specification:RustipsRuosteInverted;fill:#333333;stroke-width:0.959815"
         d="m 139.43649,20.525746 c 0.5499,0.183298 0.82485,0.649875 0.82485,1.399732 v 1.999617 l 0.58738,0.699866 -0.34993,0.937321 c 0,0.974813 0.46658,1.912134 1.39973,2.811962 l 0.11248,0.112478 v 0.237455 c -0.23329,0.283279 -0.34993,0.55406 -0.34993,0.812344 v 0.124976 h 0.34993 c 1.48305,0.599885 2.22458,1.183107 2.22458,1.749665 l -0.34994,0.349933 -3.16189,-0.462411 c -0.30827,0.07498 -0.46241,0.345767 -0.46241,0.812344 l 0.11247,1.287254 -0.11247,2.574507 v 0.237454 l 0.11247,1.874642 c -0.11664,0.62488 -0.42908,0.93732 -0.93732,0.93732 h -2.33705 c -1.64135,0 -2.46203,-0.391592 -2.46203,-1.174775 v -4.799081 c 0,-0.466577 -0.23329,-0.699866 -0.69986,-0.699866 h -3.27438 c -0.46657,0 -0.69986,0.233289 -0.69986,0.699866 v 1.874641 l -0.23746,1.287253 v 0.587388 l 0.23746,1.287254 c -0.3666,0.699866 -0.79569,1.049799 -1.28726,1.049799 h -3.87425 c -0.69987,-0.09998 -1.0498,-0.449914 -1.0498,-1.049799 v -8.198431 l 0.11247,-1.862143 -0.22495,-0.824843 0.11248,-1.049799 c -0.13331,-0.424919 -0.24996,-1.870475 -0.34994,-4.336669 0,-0.699867 0.62488,-1.0498 1.87464,-1.0498 l 3.1619,-0.124976 h 0.23745 c 0.69987,0.158303 1.0498,0.354099 1.0498,0.587388 v 0.937321 l 0.11248,1.049799 -0.46241,0.712363 v 0.349933 l 0.46241,0.587388 v 2.224574 l 0.12498,0.112478 0.34993,0.112479 v 0.124976 l 0.11248,-0.124976 h 0.11248 l 3.04941,0.124976 c 0.46658,0 0.69987,-0.237455 0.69987,-0.712364 v -5.149014 c 0,-0.624881 0.34993,-0.937321 1.0498,-0.937321 z m -1.16227,13.934832 -0.23746,0.224957 0.23746,0.237455 0.22495,-0.237455 z" />
      <path
         sodipodi:nodetypes="cccscccccsccccccccccccccccccsccccccccccccccccccccscccccscccssccccssccsccccsccccccscccccccccccccccccccccscccccccccccccccccc"
         id="path892"
         style="font-style:normal;font-variant:normal;font-weight:normal;font-stretch:normal;font-family:RustipsRuosteInverted;-inkscape-font-specification:RustipsRuosteInverted;fill:#333333;stroke-width:0.959815"
         d="m 152.67145,20.40077 h 0.86234 l 4.43665,0.762354 c 4.19087,2.357882 6.2863,5.211502 6.2863,8.560861 0,2.666157 -1.12062,4.940721 -3.36186,6.823694 -0.74985,1.00814 -1.64968,1.51221 -2.69948,1.51221 -1.50805,0.649876 -2.48286,0.974814 -2.92444,0.974814 -3.32437,-0.249952 -4.98655,-0.537397 -4.98655,-0.862335 -1.13311,0 -2.72447,-1.120619 -4.77408,-3.361857 -1.22477,-1.749665 -1.83715,-3.303534 -1.83715,-4.661607 v -0.537397 c 0.19163,-1.524709 0.51656,-2.716147 0.97481,-3.574316 0.1833,-0.76652 1.44556,-2.103764 3.78678,-4.011732 0,-0.624881 0.29161,-1.058131 0.87483,-1.299751 l 0.74985,0.537397 2.38705,-0.649876 z m -1.84964,2.162086 h -0.1 l -0.11248,0.112478 v 0.112479 l 0.11248,0.09998 h 0.1 l 0.11248,-0.09998 v -0.112479 z m 1.73717,2.599502 c -0.81651,0.874833 -1.4289,1.778826 -1.83715,2.711981 -0.72486,0 -1.08729,0.108313 -1.08729,0.324938 v 0.224957 l 0.53739,0.537397 -0.11248,1.187273 c 0,1.058131 0.83318,2.432867 2.49953,4.12421 0.0333,0.449914 0.17914,0.808179 0.43741,1.074795 h 0.1 l 1.84965,-1.074795 c 1.04147,-0.291611 1.97879,-1.34141 2.81196,-3.149397 l 0.32494,-2.374545 v -0.112479 c -0.50824,-0.458245 -0.76236,-0.783183 -0.76236,-0.974813 l -1.29975,-2.062105 -0.64987,0.112478 -1.18727,-0.437416 -1.18728,0.112478 z m 7.58604,0.437417 -0.22495,0.762354 c 0.075,0.283279 0.25828,0.424918 0.54989,0.424918 0.21663,-0.258283 0.32494,-0.508235 0.32494,-0.749856 -0.10831,-0.291611 -0.21663,-0.437416 -0.32494,-0.437416 z m 1.29976,0.762354 c 0,0.266615 0.32494,0.445748 0.97481,0.537397 0,0.483241 0.17913,0.808178 0.5374,0.974813 h 0.11247 v -0.324938 c 0,-0.24162 -0.29161,-0.820676 -0.87483,-1.737167 h -0.32494 c -0.14164,0.03333 -0.28328,0.216625 -0.42491,0.549895 z m -12.36014,0.212459 c -0.28328,0.03333 -0.42492,0.141639 -0.42492,0.324938 v 0.212459 l 0.32494,0.337436 c 0.35827,0 0.57489,-0.112479 0.64988,-0.337436 v -0.09998 c -0.0333,-0.149971 -0.21663,-0.295777 -0.5499,-0.437416 z m 7.04865,1.19977 h 0.21246 c 0.29161,0.116645 0.43742,0.366597 0.43742,0.749857 v 0.112478 h -0.32494 l -0.32494,-0.324938 z m -8.12344,0 c -0.10831,0 -0.21663,0.14164 -0.32494,0.424919 l 0.42492,0.437416 h 0.11248 l 0.32493,-0.324938 v -0.212459 l -0.32493,-0.324938 z m 11.37282,0.649876 -0.21246,0.212459 v 0.21246 l 0.21246,0.224957 h 0.11248 l 0.32494,-0.324938 -0.32494,-0.324938 z m -13.22247,2.274565 -0.21246,0.212459 v 0.212459 l 0.21246,0.224957 h 0.11248 l 0.32494,-0.324938 -0.32494,-0.324937 z m 12.68507,3.674296 -0.32493,0.224957 c 0,0.224957 0.24995,0.549895 0.74985,0.974814 h 0.11248 l 0.11248,-0.112479 c -0.16663,-0.724861 -0.34993,-1.087292 -0.5499,-1.087292 z m -2.71198,0.974814 -0.43741,0.437416 v 0.212459 c 0.45824,0.09165 0.89149,0.274948 1.29975,0.549895 l 0.22495,-0.224957 v -0.212459 l -0.97481,-0.762354 z m 2.06211,0.549894 -0.32494,0.324938 v 0.09998 l 0.32494,0.324938 h 0.21246 l 0.21246,-0.21246 v -0.324937 l -0.21246,-0.21246 z" />
      <path
         id="path894"
         style="font-style:normal;font-variant:normal;font-weight:normal;font-stretch:normal;font-family:RustipsRuosteInverted;-inkscape-font-specification:RustipsRuosteInverted;fill:#333333;stroke-width:0.959815"
         d="m 168.28097,20.438263 1.96212,0.112478 2.18708,-0.112478 q 0.72486,0 0.81235,0.924823 v 7.023655 l 0.11247,2.424536 -0.11247,0.462411 q 0.075,1.962125 0.57489,1.962125 l 1.14978,-0.112479 1.38723,0.112479 0.46241,-0.112479 0.79985,0.112479 2.0746,-0.112479 q 0.57489,0.149972 0.57489,0.799847 v 0.112479 q -1.17477,4.849072 -2.52451,4.849072 l -1.03731,0.112478 h -1.0373 l -1.84964,-0.224957 -1.38724,0.224957 h -3.91175 q -1.16228,-0.162469 -1.16228,-1.037301 V 31.16121 l 0.34994,-1.14978 q -0.34994,-0.899828 -0.34994,-1.624689 V 25.04988 l -0.22495,-1.274756 v -2.29956 q 0,-0.874832 1.14978,-1.037301 z m 3.1119,2.761971 -0.22496,0.237455 0.22496,0.224956 h 0.23745 v -0.224956 z" />
      <path
         id="path896"
         style="font-style:normal;font-variant:normal;font-weight:normal;font-stretch:normal;font-family:RustipsRuosteInverted;-inkscape-font-specification:RustipsRuosteInverted;fill:#333333;stroke-width:0.959815"
         d="m 193.35117,20.413267 h 0.44991 q 0.93732,0 1.12478,1.799656 0.31244,0.474909 0.67488,2.92444 0,0.862335 -1.12479,1.024804 h -1.01231 l -3.82426,-0.112478 q -0.44992,0.112478 -0.44992,0.67487 l 0.33744,0.337436 h 1.12478 q 4.61162,0 4.61162,0.674871 l 0.11248,0.562392 v 3.599311 q -0.13748,1.012306 -1.01231,1.012306 h -4.49914 q -0.56239,0 -0.67487,0.449914 0.11248,0.374928 0.44992,0.449914 l 5.7364,-0.112479 q 0.44991,0 0.78735,0.562393 v 0.462411 q -1.14978,4.374163 -1.79966,4.374163 l -4.72409,0.112478 h -2.02462 l -2.14958,-0.112478 q -0.43742,0.237454 -1.23727,0.237454 -1.34974,0 -1.34974,-2.699483 l 0.11248,-1.012306 v -1.699675 l -0.33744,-2.92444 0.11248,-1.012306 v -1.012306 l -0.22495,-1.124785 0.22495,-0.899828 v -5.523942 q 0,-0.899828 0.89983,-0.899828 h 6.87368 l 1.5747,0.112478 q 0.43742,-0.224957 1.23727,-0.224957 z m -3.82427,2.474527 v 0.224957 l 0.11248,0.112478 h 0.11247 l 0.11248,-0.112478 -0.22495,-0.224957 z m -1.34974,0.112478 -0.22496,0.224957 v 0.112479 l 0.22496,0.224957 0.22495,-0.224957 v -0.112479 z m 4.83657,0.562393 -0.22496,0.224957 0.22496,0.224956 h 0.11248 l 0.22496,-0.224956 -0.22496,-0.224957 z m -5.7364,2.487024 -0.23746,0.224956 v 0.224957 l 0.23746,0.224957 h 0.22496 l 0.22495,-0.224957 v -0.224957 l -0.22495,-0.224956 z" />
    </g>
  </g>
</svg>
